<svg width="65" height="22" viewBox="0 0 65 22" fill="none" xmlns="http://www.w3.org/2000/svg">
<g clip-path="url(#clip0_1220_1370)">
<rect width="65" height="22" rx="4" fill="#00094A"/>
<path d="M51.0013 14.5359L54.3955 11.1418C54.4736 11.0637 54.4736 10.937 54.3955 10.8589L51.0013 7.46482" stroke="white" stroke-width="1.5" stroke-linecap="round"/>
<path d="M11.377 6.20703L13.9922 13.7036L16.563 6.20703H18.6323V15.5H17.2676V7.59717L14.5381 15.5H13.3638L10.5708 7.59717V15.5H9.28223V6.20703H11.377ZM23.9263 8.57471C24.9377 8.57471 25.7544 8.94922 26.3765 9.69824C26.9181 10.3457 27.189 11.1392 27.189 12.0786C27.189 13.1873 26.8398 14.0781 26.1416 14.751C25.5322 15.335 24.7811 15.627 23.8882 15.627C22.8641 15.627 22.0389 15.2546 21.4126 14.5098C20.8709 13.8665 20.6001 13.071 20.6001 12.123C20.6001 11.0101 20.9513 10.1172 21.6538 9.44434C22.2632 8.86458 23.0207 8.57471 23.9263 8.57471ZM23.8628 9.6665C23.2576 9.6665 22.7879 9.91406 22.4536 10.4092C22.1616 10.8408 22.0156 11.4058 22.0156 12.104C22.0156 12.9123 22.2018 13.5343 22.5742 13.9702C22.9043 14.3468 23.3381 14.5352 23.8755 14.5352C24.506 14.5352 24.9906 14.2897 25.3291 13.7988C25.6253 13.3714 25.7734 12.8065 25.7734 12.104C25.7734 11.2873 25.5809 10.6631 25.1958 10.2314C24.8657 9.85482 24.4214 9.6665 23.8628 9.6665ZM29.1187 8.70166H30.4834V9.81885C30.9108 8.98942 31.5096 8.57471 32.2798 8.57471C32.6353 8.57471 32.995 8.66569 33.3589 8.84766L32.9019 10.0156C32.6437 9.88867 32.375 9.8252 32.0957 9.8252C31.5667 9.8252 31.1562 10.0304 30.8643 10.4409C30.6104 10.8049 30.4834 11.2788 30.4834 11.8628V15.5H29.1187V8.70166ZM37.269 15.627C36.2111 15.627 35.3711 15.263 34.749 14.5352C34.2116 13.9004 33.9429 13.1006 33.9429 12.1357C33.9429 11.0101 34.2793 10.113 34.9521 9.44434C35.5319 8.86458 36.2619 8.57471 37.1421 8.57471C38.1408 8.57471 38.9067 8.9196 39.4399 9.60938C39.9012 10.2061 40.1318 11.0037 40.1318 12.0024V12.4214H35.3203C35.3584 12.853 35.4325 13.1979 35.5425 13.4561C35.6525 13.7142 35.8218 13.9406 36.0503 14.1353C36.3592 14.4019 36.7887 14.5352 37.3389 14.5352C37.7451 14.5352 38.0815 14.4653 38.3481 14.3257C38.6147 14.1818 38.8538 13.9448 39.0654 13.6147L40.0239 14.4082C39.4272 15.2207 38.509 15.627 37.269 15.627ZM35.3711 11.4312H38.7925C38.7163 10.7498 38.5322 10.2695 38.2402 9.99023C37.9863 9.74902 37.6203 9.62842 37.1421 9.62842C36.1772 9.62842 35.5869 10.2293 35.3711 11.4312Z" fill="white"/>
</g>
<defs>
<clipPath id="clip0_1220_1370">
<rect width="65" height="22" rx="4" fill="white"/>
</clipPath>
</defs>
</svg>
