<svg width="26" height="26" viewBox="0 0 26 26" fill="none" xmlns="http://www.w3.org/2000/svg">
<path d="M11.6737 25.5308C13.3223 26.4967 15.4303 25.9235 16.3821 24.2506L20.9778 16.1734C21.9296 14.5006 21.3647 12.3615 19.7162 11.3957C18.0676 10.4299 15.9596 11.003 15.0078 12.6759L9.83763 21.7628C9.2031 22.878 7.79776 23.2601 6.69871 22.6162L11.6737 25.5308Z" fill="url(#paint0_linear_2745_654)"/>
<path d="M26 5.47877C26 3.54713 24.4568 1.98122 22.5532 1.98122L13.3618 1.98122C11.4582 1.98122 9.91508 3.54713 9.91508 5.47876C9.91508 7.4104 11.4582 8.97631 13.3618 8.97631L23.7022 8.97631C24.9712 8.97631 26 10.0202 26 11.308V5.47877Z" fill="#C4C4C4"/>
<path d="M1.72396 2.91462C0.075396 3.88044 -0.489444 6.0195 0.462355 7.69235L5.05805 15.7696C6.00985 17.4424 8.11786 18.0156 9.76642 17.0498C11.415 16.0839 11.9798 13.9449 11.028 12.272L5.85787 3.18515C5.22334 2.06992 5.5999 0.64388 6.69894 0L1.72396 2.91462Z" fill="#C4C4C4"/>
<defs>
<linearGradient id="paint0_linear_2745_654" x1="11.994" y1="12.0706" x2="12.3229" y2="26.016" gradientUnits="userSpaceOnUse">
<stop stop-color="#FE8735"/>
<stop offset="1" stop-color="#FEA567"/>
</linearGradient>
</defs>
</svg>
