<?xml version="1.0" encoding="UTF-8"?>
<svg width="73px" height="54px" viewBox="0 0 73 54" version="1.1" xmlns="http://www.w3.org/2000/svg" xmlns:xlink="http://www.w3.org/1999/xlink">
    <title>编组</title>
    <g id="页面-1" stroke="none" stroke-width="1" fill="none" fill-rule="evenodd">
        <g id="编组" transform="translate(0.061859, 1.000000)">
            <path d="M0,6.14639415 L72,6.14639415 L72,49.4797275 L42.4832067,49.4797275 C41.8574697,49.4797275 41.2677968,49.7725879 40.8896724,50.2711546 L40.3678026,50.9592534 C39.8006159,51.7071036 38.9161067,52.1463942 37.9775011,52.1463942 L34.1573217,52.1463942 C33.3076512,52.1463942 32.497831,51.7860969 31.9289548,51.154971 L31.0147029,50.1406763 C30.635452,49.7199256 30.095572,49.4797275 29.5291249,49.4797275 L0,49.4797275 L0,49.4797275 L0,6.14639415 Z" id="矩形备份" fill="#02A1F3"></path>
            <path d="M6,0 L27.0419874,0 C28.7920961,-1.09796308e-14 30.5169457,0.417583189 32.0732596,1.21806257 L36.0014266,3.23848824 L36.0014266,3.23848824 L39.9092898,1.22333228 C41.4682239,0.419441481 43.1967945,1.09803456e-14 44.9507944,0 L65.8911086,0 C66.4433933,3.82276611e-15 66.8911086,0.44771525 66.8911086,1 L66.8911086,43.6191713 C66.8911086,44.171456 66.4433933,44.6191713 65.8911086,44.6191713 L42.8180943,44.6191713 C42.4078412,44.6191713 42.0075122,44.7453345 41.6713883,44.9805544 L37.785713,47.6997544 C36.7854018,48.3997732 35.4606439,48.4237485 34.4356585,47.7603831 L30.0780104,44.9401352 C29.7543024,44.7306331 29.3769346,44.6191713 28.9913467,44.6191713 L6,44.6191713 C5.44771525,44.6191713 5,44.171456 5,43.6191713 L5,1 C5,0.44771525 5.44771525,1.01453063e-16 6,0 Z" id="矩形备份-2" stroke="#333333" fill="#FFFFFF"></path>
            <line x1="36.5" y1="3.5" x2="36.5" y2="47.5" id="直线" stroke="#333333" stroke-linecap="square"></line>
            <rect id="矩形备份-3" fill="#333333" x="12.9381411" y="22" width="16" height="1"></rect>
            <rect id="矩形备份-8" fill="#333333" x="12.9381411" y="29" width="16" height="1"></rect>
            <rect id="矩形备份-6" fill="#333333" x="42.9381411" y="29" width="16" height="1"></rect>
            <rect id="矩形备份-5" fill="#333333" x="42.9381411" y="22" width="10" height="1"></rect>
            <rect id="矩形备份-4" fill="#333333" x="23.9381411" y="9" width="6" height="1"></rect>
            <rect id="矩形备份-7" fill="#333333" x="23.9381411" y="14" width="6" height="1"></rect>
            <circle id="椭圆形" fill="#FE6902" cx="15.9381411" cy="12" r="5"></circle>
            <polygon id="三角形" fill="#8C2CEF" points="47.9381411 7 52.9381411 17 42.9381411 17"></polygon>
        </g>
    </g>
</svg>