<?xml version="1.0" encoding="UTF-8"?>
<svg width="78px" height="72px" viewBox="0 0 78 72" version="1.1" xmlns="http://www.w3.org/2000/svg" xmlns:xlink="http://www.w3.org/1999/xlink">
    <title>编组</title>
    <g id="页面-1" stroke="none" stroke-width="1" fill="none" fill-rule="evenodd">
        <g id="编组" transform="translate(0.200000, 1.000000)">
            <path d="M0,4.31798432 L77.7237177,4.31798432 L77.7237177,51.0961478 L45.7814919,51.0961478 C45.1557548,51.0961478 44.566082,51.3890082 44.1879575,51.8875749 L43.50531,52.7876633 C42.9381233,53.5355134 42.0536141,53.974804 41.1150085,53.974804 L36.7665891,53.974804 C35.9169185,53.974804 35.1070984,53.6145068 34.5382221,52.9833808 L33.4328898,51.7570966 C33.0536389,51.3363459 32.5137589,51.0961478 31.9473118,51.0961478 L0,51.0961478 L0,51.0961478 L0,4.31798432 Z" id="矩形备份" fill="#02A1F3"></path>
            <path d="M8.91630458,-5.68434189e-14 L29.958292,-5.68434189e-14 C31.7084007,-6.78230496e-14 33.4332502,0.417583189 34.9895642,1.21806257 L38.9177312,3.23848824 L38.9177312,3.23848824 L42.8255944,1.22333228 C44.3845285,0.419441481 46.113099,-4.58630733e-14 47.867099,-5.68434189e-14 L68.8074132,-5.68434189e-14 C69.3596979,-5.30206528e-14 69.8074132,0.44771525 69.8074132,1 L69.8074132,43.6191713 C69.8074132,44.171456 69.3596979,44.6191713 68.8074132,44.6191713 L45.7343989,44.6191713 C45.3241458,44.6191713 44.9238168,44.7453345 44.5876929,44.9805544 L40.7020175,47.6997544 C39.7017064,48.3997732 38.3769485,48.4237485 37.3519631,47.7603831 L32.9943149,44.9401352 C32.6706069,44.7306331 32.2932392,44.6191713 31.9076513,44.6191713 L8.91630458,44.6191713 C8.36401983,44.6191713 7.91630458,44.171456 7.91630458,43.6191713 L7.91630458,1 C7.91630458,0.44771525 8.36401983,-5.67419658e-14 8.91630458,-5.68434189e-14 Z" id="矩形备份-2" stroke="#333333" stroke-width="2" fill="#FFFFFF"></path>
            <path d="M50.5580439,37.6792461 L70.8029494,52.0389651 L64.1440439,53.4462461 L71.0227808,65.3606529 L64.5786563,69.0811699 L57.7850439,57.3152461 L52.8714726,62.391708 L50.5580439,37.6792461 Z" id="形状结合备份" stroke="#333333" stroke-width="2" fill="#FFFFFF" stroke-linejoin="round"></path>
            <line x1="39.3" y1="3.5" x2="39.3" y2="46.5" id="直线" stroke="#333333" stroke-width="2" stroke-linecap="square"></line>
            <rect id="矩形备份-3" fill="#333333" x="15.8" y="22" width="16" height="2"></rect>
            <rect id="矩形备份-8" fill="#333333" x="15.8" y="29" width="16" height="2"></rect>
            <rect id="矩形备份-6" fill="#333333" x="45.8" y="29" width="16" height="2"></rect>
            <rect id="矩形备份-5" fill="#333333" x="45.8" y="22" width="10" height="2"></rect>
            <rect id="矩形备份-4" fill="#333333" x="26.8" y="9" width="6" height="2"></rect>
            <rect id="矩形备份-7" fill="#333333" x="26.8" y="14" width="6" height="2"></rect>
            <circle id="椭圆形" fill="#FE6902" cx="18.8" cy="12" r="5"></circle>
            <polygon id="三角形" fill="#8C2CEF" points="50.8 7 55.8 17 45.8 17"></polygon>
        </g>
    </g>
</svg>